<?xml version="1.0" encoding="utf-8"?>
<!-- Generator: Adobe Illustrator 24.2.0, SVG Export Plug-In . SVG Version: 6.00 Build 0)  -->
<svg version="1.1" id="Livello_1" xmlns="http://www.w3.org/2000/svg" xmlns:xlink="http://www.w3.org/1999/xlink" x="0px" y="0px"
	 width="500px" height="500px" viewBox="0 0 500 500" enable-background="new 0 0 500 500" xml:space="preserve">
<path id="_x33_1" fill="none" stroke="#000000" stroke-width="5.6693" stroke-linecap="square" stroke-miterlimit="10" d="
	M233.7,93.9c8.5-0.7,18.3-2.4,28.8-4.4c31-6,60,4,52,33s6,39,27,45s52-4,52-4"/>
<path id="_x33_0" fill="none" stroke="#000000" stroke-width="5.6693" stroke-linecap="square" stroke-miterlimit="10" d="M500,193
	c-18.5-67.5-94.5-99.5-133-107"/>
<path id="_x32_9_1_" fill="none" stroke="#000000" stroke-width="5.6693" stroke-linecap="square" stroke-miterlimit="10" d="
	M217.1,93.5c-7.7-1.4-13.2-5-15.6-12c-6-17,14-47,88-47s160,33,210.5,86"/>
<path id="_x32_8" fill="none" stroke="#000000" stroke-width="5.6693" stroke-linecap="square" stroke-miterlimit="10" d="
	M345.8,285.5c18.3,2.1,35.5,9.4,49.7,28c2.6,3.4,5.2,6.4,7.7,8.9"/>
<path id="_x32_7" fill="none" stroke="#000000" stroke-width="5.6693" stroke-linecap="square" stroke-miterlimit="10" d="
	M173,263.9c22.8,16.3,52.2,27.6,88.5,27.6c19.9,0,42.7-5.5,65-6.5"/>
<path id="_x32_6" fill="none" stroke="#000000" stroke-width="5.6693" stroke-linecap="square" stroke-miterlimit="10" d="
	M66.1,263.5c-34.7,3.9-54.6-2.1-54.6-13c0-18,28-9,47-43c13.3-23.8,20-29,38-29c22,0,26,30.7,44,54c3.5,4.5,7.3,9,11.5,13.3"/>
<path id="_x32_5" fill="none" stroke="#000000" stroke-width="5.6693" stroke-linecap="square" stroke-miterlimit="10" d="
	M200.4,313.8c-9.1-8.5-19.5-17-32.9-24.3c-36-19.6-58-26.7-81.2-27.1"/>
<path id="_x32_4_1_" fill="none" stroke="#000000" stroke-width="5.6693" stroke-linecap="square" stroke-miterlimit="10" d="
	M292.8,356.8c-9.7,3.6-19.9,5.7-35.3,1.7c-18.2-4.8-30.4-17.6-44.4-32"/>
<path id="_x32_3_2_" fill="none" stroke="#000000" stroke-width="5.6693" stroke-linecap="square" stroke-miterlimit="10" d="
	M385.7,365.4c-11.6-11.5-27.6-20.9-48.2-20.9c-9.9,0-17.8,1.8-24.7,4.2"/>
<path id="_x32_2_1_" fill="none" stroke="#000000" stroke-width="5.6693" stroke-linecap="square" stroke-miterlimit="10" d="
	M500,450.5c-64.1,0-111.8-3.3-149.8-10.1"/>
<path id="_x32_1_1_" fill="none" stroke="#000000" stroke-width="5.6693" stroke-linecap="square" stroke-miterlimit="10" d="
	M406.7,395.6c15.1,27.3,40,43.9,93.3,43.9"/>
<path id="_x32_0_1_" fill="none" stroke="#000000" stroke-width="5.6693" stroke-linecap="square" stroke-miterlimit="10" d="
	M500,417.5c0-46-36.5-81-61.5-81c-0.9,0-1.7,0-2.5,0"/>
<path id="_x31_9_1_" fill="none" stroke="#000000" stroke-width="5.6693" stroke-linecap="square" stroke-miterlimit="10" d="
	M446.8,299.9c13,14,31.9,21.6,53.2,21.6"/>
<path id="_x31_8_1_" fill="none" stroke="#000000" stroke-width="5.6693" stroke-linecap="square" stroke-miterlimit="10" d="
	M345.8,255.7c24.9,2.4,48.3,8.6,67.7,18.6"/>
<path id="_x31_7_1_" fill="none" stroke="#000000" stroke-width="5.6693" stroke-linecap="square" stroke-miterlimit="10" d="
	M166,230.4c3.4,3.1,7.2,6.1,11.5,9.1c31,22,61,28,92,21c18.1-4.1,36.9-6,55.3-5.9"/>
<path id="_x31_6_1_" fill="none" stroke="#000000" stroke-width="5.6693" stroke-linecap="square" stroke-miterlimit="10" d="
	M135.6,166.4c5.2,6.6,8.8,13.9,9.9,21.1c1.2,8.4,3,15.3,5.4,21.3"/>
<path id="_x31_5_1_" fill="none" stroke="#000000" stroke-width="5.6693" stroke-linecap="square" stroke-miterlimit="10" d="
	M88.5,286c22.1,2.6,50.3,13.9,73,31.5c27,21,77.1,52.6,101,56c28,4,52,3,69-3s26.1,1,27,8c1,8-1,13-12,18c-17.6,8-24,15-20,28"/>
<path id="_x31_4_1_" fill="none" stroke="#000000" stroke-width="5.6693" stroke-linecap="square" stroke-miterlimit="10" d="
	M0,193.5c18-17,50.5-49,93.5-49c10.5,0,20.8,3.9,29.5,10"/>
<path id="_x31_3_1_" fill="none" stroke="#000000" stroke-width="5.6693" stroke-linecap="square" stroke-miterlimit="10" d="
	M66.9,286.5c-22.8,3.3-53,14.2-66.9,22"/>
<path id="_x31_2_1_" fill="none" stroke="#000000" stroke-width="5.6693" stroke-linecap="square" stroke-miterlimit="10" d="
	M110.8,330.9c40.5,10.4,77.7,27.1,107.7,50.6c28.1,22.1,55.4,38.5,93,49.8"/>
<path id="_x31_1_1_" fill="none" stroke="#000000" stroke-width="5.6693" stroke-linecap="square" stroke-miterlimit="10" d="
	M0,317.5c31,0,62.1,2.9,91.8,9"/>
<path id="_x31_0_1_" fill="none" stroke="#000000" stroke-width="5.6693" stroke-linecap="square" stroke-miterlimit="10" d="
	M255.2,446.1c-26.5-8-51.4-18.7-69.7-31.6c-27-19-69-52-80-64s-36.1-18.9-49-4c-13,15-19.5,81-56.5,93"/>
<path id="_x39__1_" fill="none" stroke="#000000" stroke-width="5.6693" stroke-linecap="square" stroke-miterlimit="10" d="
	M338.5,447.5c14,5,19,12,19,19s-4.7,13.7-15,12c-12-2-13-16-49-23c-3.8-0.7-7.7-1.6-11.6-2.4"/>
<path id="_x38__1_" fill="none" stroke="#000000" stroke-width="5.6693" stroke-linecap="square" stroke-miterlimit="10" d="
	M0,450.5c25.5,0,54-26.4,65.5-40c22-26,58.2-25.6,89-2c47,36,162,91.5,219,91.5"/>
<path id="_x37__1_" fill="none" stroke="#000000" stroke-width="5.6693" stroke-linecap="square" stroke-miterlimit="10" d="
	M264.5,500c-47-38-126-69.5-162-69.5c-43,0-66,35-102.5,35"/>
<path id="_x36__2_" fill="none" stroke="#000000" stroke-width="5.6693" stroke-linecap="square" stroke-miterlimit="10" d="
	M344.1,242.5c24.6,3.4,47.3,5.4,71.4,5.7"/>
<path id="_x35__1_" fill="none" stroke="#000000" stroke-width="5.6693" stroke-linecap="square" stroke-miterlimit="10" d="
	M153.6,158.9c9.3,8,18.6,16.9,28.4,27.1c28,29,55.8,38.7,94.5,45.5c16.2,2.9,31.1,5.4,45.1,7.7"/>
<path id="_x34__1_" fill="none" stroke="#000000" stroke-width="5.6693" stroke-linecap="square" stroke-miterlimit="10" d="
	M209.4,146.5c-1.3-2.3-2.5-5.1-3.4-8.5c-9-34-18-53-63-65c-19.8-5.3-39.5-3.4-52,7c-12,10-14,34,10,45c14.5,6.6,27.1,14.2,39.2,23.1
	"/>
<path id="_x33__1_" fill="none" stroke="#000000" stroke-width="5.6693" stroke-linecap="square" stroke-miterlimit="10" d="
	M250.1,151c-6.8-40-24.1-39.8-23.1-16c0.2,5.8-0.6,10.1-2.1,13.2"/>
<path id="_x32__1_" fill="none" stroke="#000000" stroke-width="5.6693" stroke-linecap="square" stroke-miterlimit="10" d="
	M410.7,188.1c-21.2,5.2-39.5,12.8-79.7,14.9c-40.1,2.1-69.6-8.5-78.1-36.9"/>
<path id="_x31__1_" fill="none" stroke="#000000" stroke-width="5.6693" stroke-linecap="square" stroke-miterlimit="10" d="
	M500,285.5c-4.1-20.3-19.8-36.8-46.4-38"/>
<path id="_x30_" fill="none" stroke="#000000" stroke-width="5.6693" stroke-linecap="square" stroke-miterlimit="10" d="M446,183
	c31.4-1.3,44.2,7.1,54,41.5"/>
</svg>
